# xmcd
#
# Track frame offsets: 
#        150
#        20912
#        42125
#        65110
#
# Disc length: 1169 seconds
#
# Revision: 6
# Processed by: cddbd v1.5.2PL0 Copyright (c) Steve Scherf et al.
# Submitted via: ExactAudioCopy v0.99pb5
#
DISCID=35048f04
DTITLE=2Pac - Dear Mama (Remixe)  [CD Single)
DYEAR=1994
DGENRE=Rap
TTITLE0=Dear Mama (Baby Mama Mix Extra Clean Version)
TTITLE1=Dear Mama (Big Mama Mix)
TTITLE2=Dear Mama (Black Queen Club Mix)
TTITLE3=Thug Life's Bury Me A G (f. Natasha Walker of N.Y.V.)
EXTD=
EXTT0=
EXTT1=
EXTT2=
EXTT3=
PLAYORDER=
